<mxfile host="65bd71144e">
    <diagram id="7-ainvA8BGgxwlEjJo8u" name="Page-1">
        <mxGraphModel dx="1788" dy="503" grid="1" gridSize="10" guides="1" tooltips="1" connect="1" arrows="1" fold="1" page="1" pageScale="1" pageWidth="850" pageHeight="1100" math="0" shadow="0">
            <root>
                <mxCell id="0"/>
                <mxCell id="1" parent="0"/>
                <mxCell id="2" value="Prompt user : &quot;What would you like ? (espresso/latte/cappuccion/):&quot;" style="text;html=1;align=center;verticalAlign=middle;resizable=0;points=[];autosize=1;strokeColor=none;fillColor=none;" vertex="1" parent="1">
                    <mxGeometry x="160" y="130" width="380" height="30" as="geometry"/>
                </mxCell>
                <mxCell id="3" value="if secret word &quot;off&quot; : stop the program execution (for developers and maintainers)" style="text;html=1;align=center;verticalAlign=middle;resizable=0;points=[];autosize=1;strokeColor=none;fillColor=none;" vertex="1" parent="1">
                    <mxGeometry x="550" y="150" width="450" height="30" as="geometry"/>
                </mxCell>
                <mxCell id="4" style="edgeStyle=none;html=1;entryX=0.604;entryY=0.033;entryDx=0;entryDy=0;entryPerimeter=0;" edge="1" parent="1" source="2" target="3">
                    <mxGeometry relative="1" as="geometry"/>
                </mxCell>
                <mxCell id="16" style="edgeStyle=none;html=1;entryX=0.5;entryY=0;entryDx=0;entryDy=0;" edge="1" parent="1" source="5" target="7">
                    <mxGeometry relative="1" as="geometry"/>
                </mxCell>
                <mxCell id="5" value="print report of the ingredients and money&amp;nbsp;" style="whiteSpace=wrap;html=1;" vertex="1" parent="1">
                    <mxGeometry x="305" y="420" width="120" height="40" as="geometry"/>
                </mxCell>
                <mxCell id="6" value="by calling the CoffeeMaker() and MoneyMachine() report functions" style="text;html=1;align=center;verticalAlign=middle;resizable=0;points=[];autosize=1;strokeColor=none;fillColor=none;" vertex="1" parent="1">
                    <mxGeometry x="-40" y="460" width="380" height="30" as="geometry"/>
                </mxCell>
                <mxCell id="10" style="edgeStyle=none;html=1;entryX=0.5;entryY=0;entryDx=0;entryDy=0;" edge="1" parent="1" source="7" target="9">
                    <mxGeometry relative="1" as="geometry"/>
                </mxCell>
                <mxCell id="12" style="edgeStyle=none;html=1;" edge="1" parent="1" source="7">
                    <mxGeometry relative="1" as="geometry">
                        <mxPoint x="560" y="580" as="targetPoint"/>
                    </mxGeometry>
                </mxCell>
                <mxCell id="7" value="check resources sufficient" style="whiteSpace=wrap;html=1;" vertex="1" parent="1">
                    <mxGeometry x="305" y="550" width="120" height="60" as="geometry"/>
                </mxCell>
                <mxCell id="8" value="is_ressource_sufficient function (CoffeMaker())&amp;nbsp;" style="text;html=1;align=center;verticalAlign=middle;resizable=0;points=[];autosize=1;strokeColor=none;fillColor=none;" vertex="1" parent="1">
                    <mxGeometry x="10" y="565" width="280" height="30" as="geometry"/>
                </mxCell>
                <mxCell id="25" style="edgeStyle=none;html=1;entryX=0.433;entryY=0.017;entryDx=0;entryDy=0;entryPerimeter=0;" edge="1" parent="1" source="9" target="19">
                    <mxGeometry relative="1" as="geometry">
                        <mxPoint x="365" y="840" as="targetPoint"/>
                    </mxGeometry>
                </mxCell>
                <mxCell id="9" value="Process coins" style="whiteSpace=wrap;html=1;" vertex="1" parent="1">
                    <mxGeometry x="305" y="690" width="120" height="60" as="geometry"/>
                </mxCell>
                <mxCell id="11" value="OK enough ingredients" style="text;html=1;align=center;verticalAlign=middle;resizable=0;points=[];autosize=1;strokeColor=none;fillColor=none;" vertex="1" parent="1">
                    <mxGeometry x="355" y="628" width="150" height="30" as="geometry"/>
                </mxCell>
                <mxCell id="13" value="&amp;nbsp;“Sorry there is not enough water/coffee....”" style="text;html=1;align=center;verticalAlign=middle;resizable=0;points=[];autosize=1;strokeColor=none;fillColor=none;" vertex="1" parent="1">
                    <mxGeometry x="555" y="565" width="250" height="30" as="geometry"/>
                </mxCell>
                <mxCell id="14" value="NO" style="text;html=1;align=center;verticalAlign=middle;resizable=0;points=[];autosize=1;strokeColor=none;fillColor=none;" vertex="1" parent="1">
                    <mxGeometry x="465" y="550" width="40" height="30" as="geometry"/>
                </mxCell>
                <mxCell id="17" value="process_coins() of MoneyMachine() Class" style="text;html=1;align=center;verticalAlign=middle;resizable=0;points=[];autosize=1;strokeColor=none;fillColor=none;" vertex="1" parent="1">
                    <mxGeometry x="40" y="700" width="250" height="30" as="geometry"/>
                </mxCell>
                <mxCell id="26" style="edgeStyle=none;html=1;entryX=0.5;entryY=0;entryDx=0;entryDy=0;" edge="1" parent="1" source="19" target="21">
                    <mxGeometry relative="1" as="geometry"/>
                </mxCell>
                <mxCell id="27" style="edgeStyle=none;html=1;" edge="1" parent="1" source="19">
                    <mxGeometry relative="1" as="geometry">
                        <mxPoint x="610" y="880" as="targetPoint"/>
                    </mxGeometry>
                </mxCell>
                <mxCell id="19" value="Check transaction successful" style="whiteSpace=wrap;html=1;" vertex="1" parent="1">
                    <mxGeometry x="310" y="850" width="120" height="60" as="geometry"/>
                </mxCell>
                <mxCell id="20" value="make payment" style="text;html=1;align=center;verticalAlign=middle;resizable=0;points=[];autosize=1;strokeColor=none;fillColor=none;" vertex="1" parent="1">
                    <mxGeometry x="160" y="865" width="100" height="30" as="geometry"/>
                </mxCell>
                <mxCell id="23" style="edgeStyle=none;html=1;entryX=0.553;entryY=0;entryDx=0;entryDy=0;entryPerimeter=0;" edge="1" parent="1" source="21" target="2">
                    <mxGeometry relative="1" as="geometry">
                        <mxPoint x="370" y="1229.9999999999998" as="targetPoint"/>
                        <Array as="points">
                            <mxPoint x="1040" y="1070"/>
                            <mxPoint x="1040" y="20"/>
                            <mxPoint x="370" y="20"/>
                        </Array>
                    </mxGeometry>
                </mxCell>
                <mxCell id="21" value="Make Coffee" style="whiteSpace=wrap;html=1;" vertex="1" parent="1">
                    <mxGeometry x="310" y="1040" width="120" height="60" as="geometry"/>
                </mxCell>
                <mxCell id="22" value="make_coffee and display the report after puchasing the drink selected" style="text;html=1;align=center;verticalAlign=middle;resizable=0;points=[];autosize=1;strokeColor=none;fillColor=none;" vertex="1" parent="1">
                    <mxGeometry x="-140" y="1055" width="390" height="30" as="geometry"/>
                </mxCell>
                <mxCell id="24" value="Here is your latte. Enjoy!" style="text;html=1;align=center;verticalAlign=middle;resizable=0;points=[];autosize=1;strokeColor=none;fillColor=none;" vertex="1" parent="1">
                    <mxGeometry x="190" y="1230" width="150" height="30" as="geometry"/>
                </mxCell>
                <mxCell id="28" value="“Sorry that&#39;s not enough money. Money refunded.”" style="text;html=1;align=center;verticalAlign=middle;resizable=0;points=[];autosize=1;strokeColor=none;fillColor=none;" vertex="1" parent="1">
                    <mxGeometry x="610" y="865" width="290" height="30" as="geometry"/>
                </mxCell>
                <mxCell id="29" value="NO" style="text;html=1;align=center;verticalAlign=middle;resizable=0;points=[];autosize=1;strokeColor=none;fillColor=none;" vertex="1" parent="1">
                    <mxGeometry x="480" y="848" width="40" height="30" as="geometry"/>
                </mxCell>
                <mxCell id="31" value="OFF" style="text;html=1;align=center;verticalAlign=middle;resizable=0;points=[];autosize=1;strokeColor=none;fillColor=none;" vertex="1" parent="1">
                    <mxGeometry x="565" y="108" width="50" height="30" as="geometry"/>
                </mxCell>
                <mxCell id="32" style="edgeStyle=none;html=1;entryX=0.4;entryY=0;entryDx=0;entryDy=0;entryPerimeter=0;" edge="1" parent="1" source="2" target="5">
                    <mxGeometry relative="1" as="geometry">
                        <mxPoint x="360" y="420" as="targetPoint"/>
                    </mxGeometry>
                </mxCell>
                <mxCell id="35" value="Display available items by get_items() of MenuItems() Class" style="text;html=1;align=center;verticalAlign=middle;resizable=0;points=[];autosize=1;strokeColor=none;fillColor=none;" vertex="1" parent="1">
                    <mxGeometry x="-100" y="190" width="340" height="30" as="geometry"/>
                </mxCell>
                <mxCell id="36" value="Check si cet item existe avec&amp;nbsp;" style="text;html=1;align=center;verticalAlign=middle;resizable=0;points=[];autosize=1;strokeColor=none;fillColor=none;" vertex="1" parent="1">
                    <mxGeometry x="-110" y="278" width="180" height="30" as="geometry"/>
                </mxCell>
            </root>
        </mxGraphModel>
    </diagram>
</mxfile>